<!-- icon666.com - MILLIONS OF FREE VECTOR ICONS --><svg xmlns="http://www.w3.org/2000/svg" viewBox="0 0 64 64"><g id="Outline"><g><path d="M53,24a1,1,0,0,0-1,1V57a3,3,0,0,1-3,3H15a3,3,0,0,1-3-3V25a1,1,0,0,0-2,0V57a5.006,5.006,0,0,0,5,5H49a5.006,5.006,0,0,0,5-5V25A1,1,0,0,0,53,24Z"></path><path d="M53,12H45V7a5.006,5.006,0,0,0-5-5H24a5.006,5.006,0,0,0-5,5v5H11a5.006,5.006,0,0,0-5,5v4a1,1,0,0,0,1,1h6a1,1,0,0,0,0-2H8V17a3,3,0,0,1,3-3H53a3,3,0,0,1,3,3v3H17a1,1,0,0,0,0,2H57a1,1,0,0,0,1-1V17A5.006,5.006,0,0,0,53,12ZM21,12V7a3,3,0,0,1,3-3H40a3,3,0,0,1,3,3v5H25V8H39V9a1,1,0,0,0,2,0V7a1,1,0,0,0-1-1H24a1,1,0,0,0-1,1v5Z"></path><path d="M21,24H19a3,3,0,0,0-3,3V51a1,1,0,0,0,2,0V27a1,1,0,0,1,1-1h2a1,1,0,0,1,1,1V51a1,1,0,0,0,2,0V27A3,3,0,0,0,21,24Z"></path><path d="M16,57a1,1,0,0,0,1,1H48a1,1,0,0,0,0-2H17A1,1,0,0,0,16,57Z"></path><path d="M54,17a1,1,0,0,0-1-1H11a1,1,0,0,0,0,2H53A1,1,0,0,0,54,17Z"></path><path d="M47,52a1,1,0,0,0,1-1V27a3,3,0,0,0-3-3H43a3,3,0,0,0-3,3V44a1,1,0,0,0,2,0V27a1,1,0,0,1,1-1h2a1,1,0,0,1,1,1V51A1,1,0,0,0,47,52Z"></path><path d="M40,51a1,1,0,0,0,2,0V48a1,1,0,0,0-2,0Z"></path><path d="M35,52a1,1,0,0,0,1-1V27a3,3,0,0,0-3-3H31a3,3,0,0,0-3,3v4a1,1,0,0,0,2,0V27a1,1,0,0,1,1-1h2a1,1,0,0,1,1,1V51A1,1,0,0,0,35,52Z"></path><path d="M28,51a1,1,0,0,0,2,0V35a1,1,0,0,0-2,0Z"></path></g></g></svg>